<?xml version="1.0" encoding="UTF-8"?>
<svg width="20px" height="20px" viewBox="0 0 20 20" version="1.1" xmlns="http://www.w3.org/2000/svg" xmlns:xlink="http://www.w3.org/1999/xlink">
    <title>Group 29</title>
    <g id="Icons" stroke="none" stroke-width="1" fill="none" fill-rule="evenodd">
        <g id="Artboard" transform="translate(-1015.000000, -453.000000)">
            <g id="Group-29" transform="translate(1015.000000, 453.000000)">
                <rect id="Rectangle" x="0" y="0" width="20" height="20"></rect>
                <path d="M10.0004452,10.6297131 L15.0277707,15.6570387 C15.2014031,15.8306711 15.4836671,15.8306711 15.6572995,15.6570387 C15.8309319,15.4834063 15.8309319,15.2011423 15.6572995,15.0275099 L10.6299739,10.0001844 L15.6572995,4.97285888 C15.8309319,4.79922649 15.8309319,4.51696255 15.6572995,4.34333016 C15.4836671,4.16969777 15.2014031,4.16969777 15.0277707,4.34333016 L10.0004452,9.37065569 L4.97311968,4.34333016 C4.79948729,4.16969777 4.51722335,4.16969777 4.34359096,4.34333016 C4.25632956,4.43059157 4.21358927,4.54456565 4.21358927,4.65853973 C4.21358927,4.77251382 4.25721998,4.8864879 4.34359096,4.9737493 L9.37091649,10.0010748 L4.34359096,15.0284004 C4.25632956,15.1156618 4.21358927,15.2296359 4.21358927,15.3436099 C4.21358927,15.457584 4.25721998,15.5715581 4.34359096,15.6588195 C4.51722335,15.8324519 4.79948729,15.8324519 4.97311968,15.6588195 L10.0004452,10.6297131 Z" id="Path" fill="#8D8D8D" fill-rule="nonzero"></path>
            </g>
        </g>
    </g>
</svg>