<?xml version="1.0" encoding="UTF-8"?>
<svg width="50px" height="50px" viewBox="0 0 50 50" version="1.1" xmlns="http://www.w3.org/2000/svg" xmlns:xlink="http://www.w3.org/1999/xlink">
    <title>Group 32</title>
    <g id="Icons" stroke="none" stroke-width="1" fill="none" fill-rule="evenodd">
        <g id="Artboard" transform="translate(-224.000000, -938.000000)">
            <g id="Group-32" transform="translate(224.000000, 938.000000)">
                <rect id="Rectangle-Copy-13" fill="#2C2C2C" opacity="0" x="0" y="0" width="50" height="50" rx="7"></rect>
                <g id="Group-10" transform="translate(15.000000, 15.000000)" fill="#8D8D8D" fill-rule="nonzero">
                    <path d="M18.5,20 L1.5,20 C0.673,20 0,19.327 0,18.5 L0,1.5 C0,0.673 0.673,0 1.5,0 L18.5,0 C19.327,0 20,0.673 20,1.5 L20,18.5 C20,19.327 19.327,20 18.5,20 Z M1.5,1 C1.224,1 1,1.224 1,1.5 L1,18.5 C1,18.776 1.224,19 1.5,19 L18.5,19 C18.776,19 19,18.776 19,18.5 L19,1.5 C19,1.224 18.776,1 18.5,1 L1.5,1 Z" id="Shape"></path>
                    <path d="M5,2.5 C5,2.776 4.776,3 4.5,3 C4.224,3 4,2.776 4,2.5 C4,2.224 4.224,2 4.5,2 C4.776,2 5,2.224 5,2.5 Z" id="Path"></path>
                    <path d="M5,3.5 C5,3.776 4.776,4 4.5,4 C4.224,4 4,3.776 4,3.5 C4,3.224 4.224,3 4.5,3 C4.776,3 5,3.224 5,3.5 Z" id="Path"></path>
                    <path d="M5,4.5 C5,4.776 4.776,5 4.5,5 C4.224,5 4,4.776 4,4.5 C4,4.224 4.224,4 4.5,4 C4.776,4 5,4.224 5,4.5 Z" id="Path"></path>
                    <path d="M5,5.5 C5,5.776 4.776,6 4.5,6 C4.224,6 4,5.776 4,5.5 C4,5.224 4.224,5 4.5,5 C4.776,5 5,5.224 5,5.5 Z" id="Path"></path>
                    <path d="M5,6.5 C5,6.776 4.776,7 4.5,7 C4.224,7 4,6.776 4,6.5 C4,6.224 4.224,6 4.5,6 C4.776,6 5,6.224 5,6.5 Z" id="Path"></path>
                    <path d="M5,7.5 C5,7.776 4.776,8 4.5,8 C4.224,8 4,7.776 4,7.5 C4,7.224 4.224,7 4.5,7 C4.776,7 5,7.224 5,7.5 Z" id="Path"></path>
                    <path d="M5,8.5 C5,8.776 4.776,9 4.5,9 C4.224,9 4,8.776 4,8.5 C4,8.224 4.224,8 4.5,8 C4.776,8 5,8.224 5,8.5 Z" id="Path"></path>
                    <path d="M5,9.5 C5,9.776 4.776,10 4.5,10 C4.224,10 4,9.776 4,9.5 C4,9.224 4.224,9 4.5,9 C4.776,9 5,9.224 5,9.5 Z" id="Path"></path>
                    <path d="M5,10.5 C5,10.776 4.776,11 4.5,11 C4.224,11 4,10.776 4,10.5 C4,10.224 4.224,10 4.5,10 C4.776,10 5,10.224 5,10.5 Z" id="Path"></path>
                    <path d="M5,11.5 C5,11.776 4.776,12 4.5,12 C4.224,12 4,11.776 4,11.5 C4,11.224 4.224,11 4.5,11 C4.776,11 5,11.224 5,11.5 Z" id="Path"></path>
                    <path d="M5,12.5 C5,12.776 4.776,13 4.5,13 C4.224,13 4,12.776 4,12.5 C4,12.224 4.224,12 4.5,12 C4.776,12 5,12.224 5,12.5 Z" id="Path"></path>
                    <path d="M5,13.5 C5,13.776 4.776,14 4.5,14 C4.224,14 4,13.776 4,13.5 C4,13.224 4.224,13 4.5,13 C4.776,13 5,13.224 5,13.5 Z" id="Path"></path>
                    <path d="M5,14.5 C5,14.776 4.776,15 4.5,15 C4.224,15 4,14.776 4,14.5 C4,14.224 4.224,14 4.5,14 C4.776,14 5,14.224 5,14.5 Z" id="Path"></path>
                    <path d="M5,15.5 C5,15.776 4.776,16 4.5,16 C4.224,16 4,15.776 4,15.5 C4,15.224 4.224,15 4.5,15 C4.776,15 5,15.224 5,15.5 Z" id="Path"></path>
                    <path d="M5,16.5 C5,16.776 4.776,17 4.5,17 C4.224,17 4,16.776 4,16.5 C4,16.224 4.224,16 4.5,16 C4.776,16 5,16.224 5,16.5 Z" id="Path"></path>
                    <path d="M6,2.5 C6,2.776 5.776,3 5.5,3 C5.224,3 5,2.776 5,2.5 C5,2.224 5.224,2 5.5,2 C5.776,2 6,2.224 6,2.5 Z" id="Path"></path>
                    <path d="M6,4.5 C6,4.776 5.776,5 5.5,5 C5.224,5 5,4.776 5,4.5 C5,4.224 5.224,4 5.5,4 C5.776,4 6,4.224 6,4.5 Z" id="Path"></path>
                    <path d="M6,6.5 C6,6.776 5.776,7 5.5,7 C5.224,7 5,6.776 5,6.5 C5,6.224 5.224,6 5.5,6 C5.776,6 6,6.224 6,6.5 Z" id="Path"></path>
                    <path d="M6,8.5 C6,8.776 5.776,9 5.5,9 C5.224,9 5,8.776 5,8.5 C5,8.224 5.224,8 5.5,8 C5.776,8 6,8.224 6,8.5 Z" id="Path"></path>
                    <path d="M6,10.5 C6,10.776 5.776,11 5.5,11 C5.224,11 5,10.776 5,10.5 C5,10.224 5.224,10 5.5,10 C5.776,10 6,10.224 6,10.5 Z" id="Path"></path>
                    <path d="M6,12.5 C6,12.776 5.776,13 5.5,13 C5.224,13 5,12.776 5,12.5 C5,12.224 5.224,12 5.5,12 C5.776,12 6,12.224 6,12.5 Z" id="Path"></path>
                    <path d="M6,14.5 C6,14.776 5.776,15 5.5,15 C5.224,15 5,14.776 5,14.5 C5,14.224 5.224,14 5.5,14 C5.776,14 6,14.224 6,14.5 Z" id="Path"></path>
                    <path d="M6,16.5 C6,16.776 5.776,17 5.5,17 C5.224,17 5,16.776 5,16.5 C5,16.224 5.224,16 5.5,16 C5.776,16 6,16.224 6,16.5 Z" id="Path"></path>
                    <path d="M7,3.5 C7,3.776 6.776,4 6.5,4 C6.224,4 6,3.776 6,3.5 C6,3.224 6.224,3 6.5,3 C6.776,3 7,3.224 7,3.5 Z" id="Path"></path>
                    <path d="M7,5.5 C7,5.776 6.776,6 6.5,6 C6.224,6 6,5.776 6,5.5 C6,5.224 6.224,5 6.5,5 C6.776,5 7,5.224 7,5.5 Z" id="Path"></path>
                    <path d="M7,7.5 C7,7.776 6.776,8 6.5,8 C6.224,8 6,7.776 6,7.5 C6,7.224 6.224,7 6.5,7 C6.776,7 7,7.224 7,7.5 Z" id="Path"></path>
                    <path d="M7,9.5 C7,9.776 6.776,10 6.5,10 C6.224,10 6,9.776 6,9.5 C6,9.224 6.224,9 6.5,9 C6.776,9 7,9.224 7,9.5 Z" id="Path"></path>
                    <path d="M7,11.5 C7,11.776 6.776,12 6.5,12 C6.224,12 6,11.776 6,11.5 C6,11.224 6.224,11 6.5,11 C6.776,11 7,11.224 7,11.5 Z" id="Path"></path>
                    <path d="M7,13.5 C7,13.776 6.776,14 6.5,14 C6.224,14 6,13.776 6,13.5 C6,13.224 6.224,13 6.5,13 C6.776,13 7,13.224 7,13.5 Z" id="Path"></path>
                    <path d="M7,15.5 C7,15.776 6.776,16 6.5,16 C6.224,16 6,15.776 6,15.5 C6,15.224 6.224,15 6.5,15 C6.776,15 7,15.224 7,15.5 Z" id="Path"></path>
                    <path d="M7,17.5 C7,17.776 6.776,18 6.5,18 C6.224,18 6,17.776 6,17.5 C6,17.224 6.224,17 6.5,17 C6.776,17 7,17.224 7,17.5 Z" id="Path"></path>
                    <path d="M9,2.5 C9,2.776 8.776,3 8.5,3 C8.224,3 8,2.776 8,2.5 C8,2.224 8.224,2 8.5,2 C8.776,2 9,2.224 9,2.5 Z" id="Path"></path>
                    <path d="M9,4.5 C9,4.776 8.776,5 8.5,5 C8.224,5 8,4.776 8,4.5 C8,4.224 8.224,4 8.5,4 C8.776,4 9,4.224 9,4.5 Z" id="Path"></path>
                    <path d="M9,6.5 C9,6.776 8.776,7 8.5,7 C8.224,7 8,6.776 8,6.5 C8,6.224 8.224,6 8.5,6 C8.776,6 9,6.224 9,6.5 Z" id="Path"></path>
                    <path d="M9,8.5 C9,8.776 8.776,9 8.5,9 C8.224,9 8,8.776 8,8.5 C8,8.224 8.224,8 8.5,8 C8.776,8 9,8.224 9,8.5 Z" id="Path"></path>
                    <path d="M9,10.5 C9,10.776 8.776,11 8.5,11 C8.224,11 8,10.776 8,10.5 C8,10.224 8.224,10 8.5,10 C8.776,10 9,10.224 9,10.5 Z" id="Path"></path>
                    <path d="M9,12.5 C9,12.776 8.776,13 8.5,13 C8.224,13 8,12.776 8,12.5 C8,12.224 8.224,12 8.5,12 C8.776,12 9,12.224 9,12.5 Z" id="Path"></path>
                    <path d="M9,14.5 C9,14.776 8.776,15 8.5,15 C8.224,15 8,14.776 8,14.5 C8,14.224 8.224,14 8.5,14 C8.776,14 9,14.224 9,14.5 Z" id="Path"></path>
                    <path d="M9,16.5 C9,16.776 8.776,17 8.5,17 C8.224,17 8,16.776 8,16.5 C8,16.224 8.224,16 8.5,16 C8.776,16 9,16.224 9,16.5 Z" id="Path"></path>
                    <path d="M11,3.5 C11,3.776 10.776,4 10.5,4 C10.224,4 10,3.776 10,3.5 C10,3.224 10.224,3 10.5,3 C10.776,3 11,3.224 11,3.5 Z" id="Path"></path>
                    <path d="M11,5.5 C11,5.776 10.776,6 10.5,6 C10.224,6 10,5.776 10,5.5 C10,5.224 10.224,5 10.5,5 C10.776,5 11,5.224 11,5.5 Z" id="Path"></path>
                    <path d="M11,7.5 C11,7.776 10.776,8 10.5,8 C10.224,8 10,7.776 10,7.5 C10,7.224 10.224,7 10.5,7 C10.776,7 11,7.224 11,7.5 Z" id="Path"></path>
                    <path d="M11,9.5 C11,9.776 10.776,10 10.5,10 C10.224,10 10,9.776 10,9.5 C10,9.224 10.224,9 10.5,9 C10.776,9 11,9.224 11,9.5 Z" id="Path"></path>
                    <path d="M11,11.5 C11,11.776 10.776,12 10.5,12 C10.224,12 10,11.776 10,11.5 C10,11.224 10.224,11 10.5,11 C10.776,11 11,11.224 11,11.5 Z" id="Path"></path>
                    <path d="M11,13.5 C11,13.776 10.776,14 10.5,14 C10.224,14 10,13.776 10,13.5 C10,13.224 10.224,13 10.5,13 C10.776,13 11,13.224 11,13.5 Z" id="Path"></path>
                    <path d="M11,15.5 C11,15.776 10.776,16 10.5,16 C10.224,16 10,15.776 10,15.5 C10,15.224 10.224,15 10.5,15 C10.776,15 11,15.224 11,15.5 Z" id="Path"></path>
                    <path d="M11,17.5 C11,17.776 10.776,18 10.5,18 C10.224,18 10,17.776 10,17.5 C10,17.224 10.224,17 10.5,17 C10.776,17 11,17.224 11,17.5 Z" id="Path"></path>
                    <path d="M5,17.5 C5,17.776 4.776,18 4.5,18 C4.224,18 4,17.776 4,17.5 C4,17.224 4.224,17 4.5,17 C4.776,17 5,17.224 5,17.5 Z" id="Path"></path>
                    <path d="M4,2.5 C4,2.776 3.776,3 3.5,3 C3.224,3 3,2.776 3,2.5 C3,2.224 3.224,2 3.5,2 C3.776,2 4,2.224 4,2.5 Z" id="Path"></path>
                    <path d="M4,3.5 C4,3.776 3.776,4 3.5,4 C3.224,4 3,3.776 3,3.5 C3,3.224 3.224,3 3.5,3 C3.776,3 4,3.224 4,3.5 Z" id="Path"></path>
                    <path d="M4,4.5 C4,4.776 3.776,5 3.5,5 C3.224,5 3,4.776 3,4.5 C3,4.224 3.224,4 3.5,4 C3.776,4 4,4.224 4,4.5 Z" id="Path"></path>
                    <path d="M4,5.5 C4,5.776 3.776,6 3.5,6 C3.224,6 3,5.776 3,5.5 C3,5.224 3.224,5 3.5,5 C3.776,5 4,5.224 4,5.5 Z" id="Path"></path>
                    <path d="M4,6.5 C4,6.776 3.776,7 3.5,7 C3.224,7 3,6.776 3,6.5 C3,6.224 3.224,6 3.5,6 C3.776,6 4,6.224 4,6.5 Z" id="Path"></path>
                    <path d="M4,7.5 C4,7.776 3.776,8 3.5,8 C3.224,8 3,7.776 3,7.5 C3,7.224 3.224,7 3.5,7 C3.776,7 4,7.224 4,7.5 Z" id="Path"></path>
                    <path d="M4,8.5 C4,8.776 3.776,9 3.5,9 C3.224,9 3,8.776 3,8.5 C3,8.224 3.224,8 3.5,8 C3.776,8 4,8.224 4,8.5 Z" id="Path"></path>
                    <path d="M4,9.5 C4,9.776 3.776,10 3.5,10 C3.224,10 3,9.776 3,9.5 C3,9.224 3.224,9 3.5,9 C3.776,9 4,9.224 4,9.5 Z" id="Path"></path>
                    <path d="M4,10.5 C4,10.776 3.776,11 3.5,11 C3.224,11 3,10.776 3,10.5 C3,10.224 3.224,10 3.5,10 C3.776,10 4,10.224 4,10.5 Z" id="Path"></path>
                    <path d="M4,11.5 C4,11.776 3.776,12 3.5,12 C3.224,12 3,11.776 3,11.5 C3,11.224 3.224,11 3.5,11 C3.776,11 4,11.224 4,11.5 Z" id="Path"></path>
                    <path d="M4,12.5 C4,12.776 3.776,13 3.5,13 C3.224,13 3,12.776 3,12.5 C3,12.224 3.224,12 3.5,12 C3.776,12 4,12.224 4,12.5 Z" id="Path"></path>
                    <path d="M4,13.5 C4,13.776 3.776,14 3.5,14 C3.224,14 3,13.776 3,13.5 C3,13.224 3.224,13 3.5,13 C3.776,13 4,13.224 4,13.5 Z" id="Path"></path>
                    <path d="M4,14.5 C4,14.776 3.776,15 3.5,15 C3.224,15 3,14.776 3,14.5 C3,14.224 3.224,14 3.5,14 C3.776,14 4,14.224 4,14.5 Z" id="Path"></path>
                    <path d="M4,15.5 C4,15.776 3.776,16 3.5,16 C3.224,16 3,15.776 3,15.5 C3,15.224 3.224,15 3.5,15 C3.776,15 4,15.224 4,15.5 Z" id="Path"></path>
                    <path d="M4,16.5 C4,16.776 3.776,17 3.5,17 C3.224,17 3,16.776 3,16.5 C3,16.224 3.224,16 3.5,16 C3.776,16 4,16.224 4,16.5 Z" id="Path"></path>
                    <path d="M4,17.5 C4,17.776 3.776,18 3.5,18 C3.224,18 3,17.776 3,17.5 C3,17.224 3.224,17 3.5,17 C3.776,17 4,17.224 4,17.5 Z" id="Path"></path>
                    <path d="M13,2.5 C13,2.776 12.776,3 12.5,3 C12.224,3 12,2.776 12,2.5 C12,2.224 12.224,2 12.5,2 C12.776,2 13,2.224 13,2.5 Z" id="Path"></path>
                    <path d="M13,6.5 C13,6.776 12.776,7 12.5,7 C12.224,7 12,6.776 12,6.5 C12,6.224 12.224,6 12.5,6 C12.776,6 13,6.224 13,6.5 Z" id="Path"></path>
                    <path d="M13,10.5 C13,10.776 12.776,11 12.5,11 C12.224,11 12,10.776 12,10.5 C12,10.224 12.224,10 12.5,10 C12.776,10 13,10.224 13,10.5 Z" id="Path"></path>
                    <path d="M13,14.5 C13,14.776 12.776,15 12.5,15 C12.224,15 12,14.776 12,14.5 C12,14.224 12.224,14 12.5,14 C12.776,14 13,14.224 13,14.5 Z" id="Path"></path>
                    <path d="M15,4.5 C15,4.776 14.776,5 14.5,5 C14.224,5 14,4.776 14,4.5 C14,4.224 14.224,4 14.5,4 C14.776,4 15,4.224 15,4.5 Z" id="Path"></path>
                    <path d="M15,8.5 C15,8.776 14.776,9 14.5,9 C14.224,9 14,8.776 14,8.5 C14,8.224 14.224,8 14.5,8 C14.776,8 15,8.224 15,8.5 Z" id="Path"></path>
                    <path d="M15,12.5 C15,12.776 14.776,13 14.5,13 C14.224,13 14,12.776 14,12.5 C14,12.224 14.224,12 14.5,12 C14.776,12 15,12.224 15,12.5 Z" id="Path"></path>
                    <path d="M15,16.5 C15,16.776 14.776,17 14.5,17 C14.224,17 14,16.776 14,16.5 C14,16.224 14.224,16 14.5,16 C14.776,16 15,16.224 15,16.5 Z" id="Path"></path>
                    <path d="M2.5,18 C2.224,18 2,17.776 2,17.5 L2,2.5 C2,2.224 2.224,2 2.5,2 C2.776,2 3,2.224 3,2.5 L3,17.5 C3,17.776 2.776,18 2.5,18 Z" id="Path"></path>
                </g>
            </g>
        </g>
    </g>
</svg>