<?xml version="1.0" encoding="UTF-8"?>
<svg width="20px" height="20px" viewBox="0 0 20 20" version="1.1" xmlns="http://www.w3.org/2000/svg" xmlns:xlink="http://www.w3.org/1999/xlink">
    <title>Icons/Book</title>
    <defs>
        <filter id="filter-1">
            <feColorMatrix in="SourceGraphic" type="matrix" values="0 0 0 0 0.551715 0 0 0 0 0.551715 0 0 0 0 0.551715 0 0 0 1.000000 0"></feColorMatrix>
        </filter>
    </defs>
    <g id="Icons/Book" stroke="none" stroke-width="1" fill="none" fill-rule="evenodd">
        <g filter="url(#filter-1)" id="0277-book2">
            <g transform="translate(3.000000, 1.000000)">
                <path d="M12.5,17 L2.5,17 C2.224,17 2,16.776 2,16.5 C2,16.224 2.224,16 2.5,16 L12.5,16 C12.776,16 13,16.224 13,16.5 C13,16.776 12.776,17 12.5,17 Z" id="Path" fill="#000000" fill-rule="nonzero"></path>
                <path d="M14.5,2 C14.224,2 14,2.224 14,2.5 L14,17.5 C14,17.776 13.776,18 13.5,18 L2.5,18 C1.673,18 1,17.327 1,16.5 C1,15.673 1.673,15 2.5,15 L11.5,15 C12.327,15 13,14.327 13,13.5 L13,1.5 C13,0.673 12.327,0 11.5,0 L1.5,0 C0.673,0 0,0.673 0,1.5 L0,16.5 C0,17.878 1.122,19 2.5,19 L13.5,19 C14.327,19 15,18.327 15,17.5 L15,2.5 C15,2.224 14.776,2 14.5,2 Z M1.5,1 L11.5,1 C11.776,1 12,1.224 12,1.5 L12,13.5 C12,13.776 11.776,14 11.5,14 L2.5,14 C1.938,14 1.418,14.187 1,14.501 L1,1.5 C1,1.224 1.224,1 1.5,1 Z" id="Shape" fill="#000000" fill-rule="nonzero"></path>
            </g>
        </g>
    </g>
</svg>