<?xml version="1.0" encoding="UTF-8"?>
<svg width="44px" height="44px" viewBox="0 0 44 44" version="1.1" xmlns="http://www.w3.org/2000/svg" xmlns:xlink="http://www.w3.org/1999/xlink">
    <title>Group 6</title>
    <g id="Icons" stroke="none" stroke-width="1" fill="none" fill-rule="evenodd">
        <g id="Artboard" transform="translate(-1220.000000, -401.000000)">
            <g id="Group-6" transform="translate(1220.000000, 401.000000)">
                <rect id="Rectangle-Copy-10" fill="#2C2C2C" opacity="0" x="0" y="0" width="44" height="44" rx="7"></rect>
                <g id="Group-5" transform="translate(14.000000, 19.000000)" fill="#8D8D8D" fill-rule="nonzero">
                    <path d="M8,4.36363636 C6.79709091,4.36363636 5.81818182,3.38472727 5.81818182,2.18181818 C5.81818182,0.978909091 6.79709091,0 8,0 C9.20290909,0 10.1818182,0.978909091 10.1818182,2.18181818 C10.1818182,3.38472727 9.20290909,4.36363636 8,4.36363636 Z M8,1.45454545 C7.59854545,1.45454545 7.27272727,1.78036364 7.27272727,2.18181818 C7.27272727,2.58327273 7.59854545,2.90909091 8,2.90909091 C8.40145455,2.90909091 8.72727273,2.58327273 8.72727273,2.18181818 C8.72727273,1.78036364 8.40145455,1.45454545 8,1.45454545 Z" id="Shape"></path>
                    <path d="M13.8181818,4.36363636 C12.6152727,4.36363636 11.6363636,3.38472727 11.6363636,2.18181818 C11.6363636,0.978909091 12.6152727,0 13.8181818,0 C15.0210909,0 16,0.978909091 16,2.18181818 C16,3.38472727 15.0210909,4.36363636 13.8181818,4.36363636 Z M13.8181818,1.45454545 C13.4167273,1.45454545 13.0909091,1.78036364 13.0909091,2.18181818 C13.0909091,2.58327273 13.4167273,2.90909091 13.8181818,2.90909091 C14.2196364,2.90909091 14.5454545,2.58327273 14.5454545,2.18181818 C14.5454545,1.78036364 14.2196364,1.45454545 13.8181818,1.45454545 Z" id="Shape"></path>
                    <path d="M2.18181818,4.36363636 C0.978909091,4.36363636 0,3.38472727 0,2.18181818 C0,0.978909091 0.978909091,0 2.18181818,0 C3.38472727,0 4.36363636,0.978909091 4.36363636,2.18181818 C4.36363636,3.38472727 3.38472727,4.36363636 2.18181818,4.36363636 Z M2.18181818,1.45454545 C1.78036364,1.45454545 1.45454545,1.78036364 1.45454545,2.18181818 C1.45454545,2.58327273 1.78036364,2.90909091 2.18181818,2.90909091 C2.58327273,2.90909091 2.90909091,2.58327273 2.90909091,2.18181818 C2.90909091,1.78036364 2.58327273,1.45454545 2.18181818,1.45454545 Z" id="Shape"></path>
                </g>
            </g>
        </g>
    </g>
</svg>