<?xml version="1.0" encoding="UTF-8"?>
<svg width="20px" height="20px" viewBox="0 0 20 20" version="1.1" xmlns="http://www.w3.org/2000/svg" xmlns:xlink="http://www.w3.org/1999/xlink">
    <title>Icons/Image</title>
    <defs>
        <filter id="filter-1">
            <feColorMatrix in="SourceGraphic" type="matrix" values="0 0 0 0 0.551715 0 0 0 0 0.551715 0 0 0 0 0.551715 0 0 0 1.000000 0"></feColorMatrix>
        </filter>
    </defs>
    <g id="Icons/Image" stroke="none" stroke-width="1" fill="none" fill-rule="evenodd">
        <g filter="url(#filter-1)" id="0271-picture">
            <g>
                <path d="M13.5,9 C12.122,9 11,7.878 11,6.5 C11,5.122 12.122,4 13.5,4 C14.878,4 16,5.122 16,6.5 C16,7.878 14.878,9 13.5,9 Z M13.5,5 C12.673,5 12,5.673 12,6.5 C12,7.327 12.673,8 13.5,8 C14.327,8 15,7.327 15,6.5 C15,5.673 14.327,5 13.5,5 Z" id="Shape" fill="#000000" fill-rule="nonzero"></path>
                <path d="M18.5,0 L1.5,0 C0.673,0 0,0.673 0,1.5 L0,18.5 C0,19.327 0.673,20 1.5,20 L18.5,20 C19.327,20 20,19.327 20,18.5 L20,1.5 C20,0.673 19.327,0 18.5,0 Z M1,18.5 L1,13.693 L5.197,9.076 C5.282,8.983 5.393,8.931 5.511,8.92894223 C5.629,8.927 5.742,8.977 5.829,9.068 L15.329,19 L1.499,19 C1.223,19 0.999,18.776 0.999,18.5 L1,18.5 Z M19,18.5 C19,18.776 18.776,19 18.5,19 L16.714,19 L6.553,8.377 C6.272,8.083 5.898,7.925 5.5,7.93 C5.102,7.935 4.732,8.103 4.458,8.404 L1.001,12.207 L1.001,1.5 C1.001,1.224 1.225,1 1.501,1 L18.501,1 C18.777,1 19.001,1.224 19.001,1.5 L19.001,18.5 L19,18.5 Z" id="Shape" fill="#000000" fill-rule="nonzero"></path>
            </g>
        </g>
    </g>
</svg>