<?xml version="1.0" encoding="UTF-8"?>
<svg width="50px" height="50px" viewBox="0 0 50 50" version="1.1" xmlns="http://www.w3.org/2000/svg" xmlns:xlink="http://www.w3.org/1999/xlink">
    <title>Group 27</title>
    <g id="Icons" stroke="none" stroke-width="1" fill="none" fill-rule="evenodd">
        <g id="Artboard" transform="translate(-736.000000, -269.000000)">
            <g id="Group-27" transform="translate(736.000000, 269.000000)">
                <rect id="Rectangle-Copy-9" fill="#2C2C2C" opacity="0" x="0" y="0" width="50" height="50" rx="7"></rect>
                <g id="Group-24" transform="translate(18.000000, 15.000000)" fill="#8D8D8D" fill-rule="nonzero">
                    <path d="M6.5,3 C6.368,3 6.24,2.947 6.147,2.853 C6.054,2.759 6,2.631 6,2.5 C6,2.369 6.053,2.24 6.147,2.147 C6.24,2.054 6.369,2 6.5,2 C6.631,2 6.761,2.053 6.853,2.147 C6.946,2.24 7,2.369 7,2.5 C7,2.631 6.947,2.761 6.853,2.853 C6.76,2.946 6.631,3 6.5,3 L6.5,3 Z" id="Path"></path>
                    <path d="M13.5,7 L13,7 L13,4.5 C13,3.673 12.327,3 11.5,3 L10.554,3 C10.345,2.71 10.067,2.474 9.723,2.303 C9.448,2.165 9.176,2.09 8.959,2.049 C8.746,0.885 7.724,0 6.5,0 C5.276,0 4.254,0.885 4.041,2.049 C3.823,2.09 3.552,2.165 3.277,2.303 C2.934,2.475 2.655,2.711 2.446,3 L1.5,3 C0.673,3 0,3.673 0,4.5 L0,15.5 C0,16.327 0.673,17 1.5,17 L4,17 L4,18.5 C4,19.327 4.673,20 5.5,20 L13.5,20 C14.327,20 15,19.327 15,18.5 L15,8.5 C15,7.673 14.327,7 13.5,7 Z M3.698,3.21 C4.087,3.007 4.498,3 4.5,3 C4.776,3 5,2.776 5,2.5 C5,1.673 5.673,1 6.5,1 C7.327,1 8,1.673 8,2.5 C8,2.776 8.221,3 8.497,3 C8.501,3 8.913,3.007 9.302,3.21 C9.633,3.383 9.844,3.643 9.94,4 L3.06,4 C3.156,3.644 3.367,3.383 3.698,3.21 Z M1.5,16 C1.224,16 1,15.776 1,15.5 L1,4.5 C1,4.224 1.224,4 1.5,4 L2.04,4 C2.013,4.159 2,4.326 2,4.5 C2,4.776 2.224,5 2.5,5 L10.5,5 C10.5,5 10.5,5 10.501,5 C10.777,5 11.001,4.776 11.001,4.5 C11.001,4.491 11.001,4.482 11,4.473 C10.999,4.309 10.985,4.151 10.96,4 L11.5,4 C11.776,4 12,4.224 12,4.5 L12,7 L7,7 C6.867,7 6.74,7.053 6.646,7.146 L4.146,9.646 C4.052,9.74 4,9.867 4,10 L4,16 L1.5,16 Z M7,8.207 L7,9.5 C7,9.776 6.776,10 6.5,10 L5.207,10 L7,8.207 Z M14,18.5 C14,18.776 13.776,19 13.5,19 L5.5,19 C5.224,19 5,18.776 5,18.5 L5,11 L6.5,11 C7.327,11 8,10.327 8,9.5 L8,8 L13.5,8 C13.776,8 14,8.224 14,8.5 L14,18.5 Z" id="Shape"></path>
                </g>
            </g>
        </g>
    </g>
</svg>