<?xml version="1.0" encoding="UTF-8"?>
<svg width="20px" height="20px" viewBox="0 0 20 20" version="1.1" xmlns="http://www.w3.org/2000/svg" xmlns:xlink="http://www.w3.org/1999/xlink">
    <title>Group 34</title>
    <g id="Icons" stroke="none" stroke-width="1" fill="none" fill-rule="evenodd">
        <g id="Artboard" transform="translate(-543.000000, -779.000000)">
            <g id="Group-34" transform="translate(543.000000, 779.000000)">
                <rect id="Rectangle" fill-opacity="0" fill="#FFFFFF" x="0" y="0" width="20" height="20"></rect>
                <g id="Group-33" transform="translate(2.000000, 0.000000)" fill="#8D8D8D" fill-rule="nonzero">
                    <path d="M15.854,4.646 L11.354,0.146 C11.26,0.052 11.133,0 11,0 L1.5,0 C0.673,0 0,0.673 0,1.5 L0,17.5 C0,18.327 0.673,19 1.5,19 L14.5,19 C15.327,19 16,18.327 16,17.5 L16,5 C16,4.867 15.947,4.74 15.854,4.646 Z M14.793,5 L11.5,5 C11.224,5 11,4.776 11,4.5 L11,1.207 L14.793,5 Z M14.5,18 L1.5,18 C1.224,18 1,17.776 1,17.5 L1,1.5 C1,1.224 1.224,1 1.5,1 L10,1 L10,4.5 C10,5.327 10.673,6 11.5,6 L15,6 L15,17.5 C15,17.776 14.776,18 14.5,18 Z" id="Shape"></path>
                    <path d="M5,16 C4.872,16 4.744,15.951 4.646,15.854 L2.646,13.854 C2.451,13.659 2.451,13.342 2.646,13.147 L4.646,11.147 C4.841,10.952 5.158,10.952 5.353,11.147 C5.548,11.342 5.548,11.659 5.353,11.854 L3.707,13.5 L5.353,15.146 C5.548,15.341 5.548,15.658 5.353,15.853 C5.255,15.951 5.127,15.999 4.999,15.999 L5,16 Z" id="Path"></path>
                    <path d="M7.5,16 C7.463,16 7.426,15.996 7.388,15.987 C7.119,15.925 6.95,15.657 7.012,15.388 L7.926,11.388 C7.988,11.119 8.256,10.95 8.525,11.012 C8.794,11.074 8.963,11.342 8.901,11.611 L7.987,15.611 C7.934,15.843 7.728,16 7.5,16 L7.5,16 Z" id="Path"></path>
                    <path d="M11,16 C10.872,16 10.744,15.951 10.646,15.854 C10.451,15.659 10.451,15.342 10.646,15.147 L12.292,13.501 L10.646,11.855 C10.451,11.66 10.451,11.343 10.646,11.148 C10.841,10.953 11.158,10.953 11.353,11.148 L13.353,13.148 C13.548,13.343 13.548,13.66 13.353,13.855 L11.353,15.855 C11.255,15.953 11.127,16.001 10.999,16.001 L11,16 Z" id="Path"></path>
                </g>
            </g>
        </g>
    </g>
</svg>