<?xml version="1.0" encoding="UTF-8"?>
<svg width="20px" height="20px" viewBox="0 0 20 20" version="1.1" xmlns="http://www.w3.org/2000/svg" xmlns:xlink="http://www.w3.org/1999/xlink">
    <title>Group 15</title>
    <g id="Icons" stroke="none" stroke-width="1" fill="none" fill-rule="evenodd">
        <g id="Artboard" transform="translate(-773.000000, -676.000000)">
            <g id="Group-15" transform="translate(773.000000, 676.000000)">
                <g id="Shape-3" fill="#8D8D8D" fill-rule="nonzero">
                    <path d="M19.85225,0.14625 C19.65725,-0.04875 19.34025,-0.04875 19.14525,0.14625 L17.14525,2.14625 C16.94925,2.05225 16.73025,1.99925 16.49925,1.99925 L3.49925,1.99925 C2.67225,1.99925 1.99925,2.67225 1.99925,3.49925 L1.99925,16.49925 C1.99925,16.73025 2.05225,16.94925 2.14625,17.14525 L0.14625,19.14525 C-0.04875,19.34025 -0.04875,19.65725 0.14625,19.85225 C0.24425,19.95025 0.37225,19.99825 0.50025,19.99825 C0.62825,19.99825 0.75625,19.94925 0.85425,19.85225 L2.85425,17.85225 C3.05025,17.94625 3.26925,17.99925 3.50025,17.99925 L16.50025,17.99925 C17.32725,17.99925 18.00025,17.32625 18.00025,16.49925 L18.00025,3.49925 C18.00025,3.26825 17.94725,3.04925 17.85325,2.85325 L19.85325,0.85325 C20.04825,0.65825 20.04825,0.34125 19.85325,0.14625 L19.85225,0.14625 Z M11.29125,8.00025 L7.99825,11.29325 L7.99825,8.00025 L11.29125,8.00025 Z M7.99825,7.00025 L7.99825,3.00025 L11.99825,3.00025 L11.99825,7.00025 L7.99825,7.00025 Z M6.99825,12.00025 L2.99825,12.00025 L2.99825,8.00025 L6.99825,8.00025 L6.99825,12.00025 Z M8.70525,12.00025 L11.99825,8.70725 L11.99825,12.00025 L8.70525,12.00025 Z M11.99825,13.00025 L11.99825,17.00025 L7.99825,17.00025 L7.99825,13.00025 L11.99825,13.00025 Z M12.99825,8.00025 L16.99825,8.00025 L16.99825,12.00025 L12.99825,12.00025 L12.99825,8.00025 Z M12.99825,3.00025 L16.29125,3.00025 L12.99825,6.29325 L12.99825,3.00025 Z M3.49825,3.00025 L6.99825,3.00025 L6.99825,7.00025 L2.99825,7.00025 L2.99825,3.50025 C2.99825,3.22425 3.22225,3.00025 3.49825,3.00025 Z M2.99825,13.00025 L6.29125,13.00025 L2.99825,16.29325 L2.99825,13.00025 Z M6.99825,13.70725 L6.99825,17.00025 L3.70525,17.00025 L6.99825,13.70725 Z M16.49825,17.00025 L12.99825,17.00025 L12.99825,13.00025 L16.99825,13.00025 L16.99825,16.50025 C16.99825,16.77625 16.77425,17.00025 16.49825,17.00025 Z M16.99825,7.00025 L13.70525,7.00025 L16.99825,3.70725 L16.99825,7.00025 Z" id="Shape"></path>
                </g>
                <rect id="Rectangle-Copy-7" fill="#D8D8D8" opacity="0" x="0" y="0" width="20" height="20"></rect>
            </g>
        </g>
    </g>
</svg>