<?xml version="1.0" encoding="UTF-8"?>
<svg width="50px" height="50px" viewBox="0 0 50 50" version="1.1" xmlns="http://www.w3.org/2000/svg" xmlns:xlink="http://www.w3.org/1999/xlink">
    <title>Group 28</title>
    <g id="Icons" stroke="none" stroke-width="1" fill="none" fill-rule="evenodd">
        <g id="Artboard" transform="translate(-229.000000, -836.000000)">
            <g id="Group-28" transform="translate(229.000000, 836.000000)">
                <rect id="Rectangle-Copy-6" fill="#2C2C2C" opacity="0" x="0" y="0" width="50" height="50" rx="7"></rect>
                <g id="Shape-4" transform="translate(15.000000, 20.000000)" fill="#8D8D8D" fill-rule="nonzero">
                    <path d="M19.87225,5.165 C19.82525,5.112 18.69025,3.86 16.91625,2.593 C15.86925,1.845 14.81625,1.249 13.78625,0.82 C12.48125,0.276 11.20725,1.15463195e-14 10.00025,1.15463195e-14 C8.79325,1.15463195e-14 7.51925,0.276 6.21425,0.82 C5.18425,1.249 4.13125,1.846 3.08425,2.593 C1.31025,3.86 0.17525,5.113 0.12825,5.165 C-0.04275,5.355 -0.04275,5.644 0.12825,5.834 C0.17525,5.887 1.31025,7.139 3.08425,8.406 C4.13125,9.154 5.18425,9.75 6.21425,10.179 C7.51925,10.723 8.79325,10.999 10.00025,10.999 C11.20725,10.999 12.48125,10.723 13.78625,10.179 C14.81625,9.75 15.86925,9.153 16.91625,8.406 C18.69025,7.139 19.82525,5.886 19.87225,5.834 C20.04325,5.644 20.04325,5.355 19.87225,5.165 Z M12.57425,1.437 C13.48125,2.2 14.00025,3.31 14.00025,4.499 C14.00025,6.705 12.20625,8.499 10.00025,8.499 C7.79425,8.499 6.00025,6.705 6.00025,4.499 C6.00025,3.311 6.51925,2.2 7.42625,1.437 C8.24825,1.169 9.11725,0.999 10.00025,0.999 C10.88325,0.999 11.75225,1.169 12.57425,1.437 Z M16.31725,7.605 C14.78425,8.697 12.44425,9.999 10.00025,9.999 C7.55625,9.999 5.21625,8.697 3.68325,7.605 C2.52625,6.781 1.64125,5.947 1.19425,5.499 C1.64125,5.051 2.52625,4.218 3.68325,3.393 C4.21325,3.015 4.83925,2.613 5.53325,2.248 C5.18625,2.936 5.00025,3.703 5.00025,4.499 C5.00025,7.256 7.24325,9.499 10.00025,9.499 C12.75725,9.499 15.00025,7.256 15.00025,4.499 C15.00025,3.703 14.81425,2.936 14.46725,2.248 C15.16125,2.613 15.78725,3.016 16.31725,3.393 C17.47425,4.217 18.35925,5.051 18.80625,5.499 C18.35925,5.947 17.47425,6.78 16.31725,7.605 Z" id="Shape"></path>
                </g>
            </g>
        </g>
    </g>
</svg>