<?xml version="1.0" encoding="UTF-8"?>
<svg width="50px" height="50px" viewBox="0 0 50 50" version="1.1" xmlns="http://www.w3.org/2000/svg" xmlns:xlink="http://www.w3.org/1999/xlink">
    <title>Group 2</title>
    <g id="Icons" stroke="none" stroke-width="1" fill="none" fill-rule="evenodd">
        <g id="Artboard" transform="translate(-553.000000, -573.000000)">
            <g id="Group-2" transform="translate(553.000000, 573.000000)">
                <rect id="Rectangle-Copy-6" fill="#2C2C2C" opacity="0" x="0" y="0" width="50" height="50" rx="7"></rect>
                <path d="M33,21.5 C33,21.494 33,21.488 33,21.481 C33,21.481 33,21.481 33,21.481 C32.995,21.175 32.854,20.728 32.23,20.307 C31.834,20.039 31.281,19.803 30.587,19.605 C30.06,19.454 29.467,19.33 28.827,19.234 C28.326,18.292 26.369,15 23.5,15 C22.379,15 21.793,15.543 21.498,15.999 C21.017,16.742 20.887,17.892 21.106,19.43 C20.865,19.484 20.633,19.542 20.413,19.605 C19.719,19.803 19.167,20.039 18.77,20.307 C18.146,20.728 18.005,21.174 18,21.481 C18,21.481 18,21.481 18,21.481 C18,21.487 18,21.494 18,21.5 C18,21.59 18.012,21.692 18.044,21.803 L19.925,33.089 C19.993,33.499 20.294,33.963 20.639,34.193 C20.763,34.276 21.951,35 25.5,35 C29.049,35 30.237,34.276 30.361,34.193 C30.707,33.963 31.007,33.498 31.075,33.089 L32.956,21.803 C32.988,21.692 33,21.59 33,21.5 Z M31.997,21.478 L31.983,21.559 C31.903,21.724 31.514,22.09 30.312,22.434 C29.033,22.799 27.324,23.001 25.5,23.001 C24.634,23.001 23.795,22.956 23.015,22.869 C22.881,22.478 22.746,22.058 22.621,21.626 C22.478,21.134 22.36,20.669 22.267,20.232 C23.246,20.081 24.351,20.001 25.501,20.001 C26.526,20.001 27.515,20.065 28.411,20.185 C28.425,20.188 28.439,20.189 28.453,20.191 C29.136,20.284 29.764,20.411 30.313,20.568 C31.614,20.94 31.963,21.337 31.997,21.479 L31.997,21.478 Z M28,27.5 C28,27.776 27.776,28 27.5,28 C27.224,28 27,27.776 27,27.5 C27.002,27.348 27.187,26.783 27.334,26.33 C27.388,26.165 27.444,25.994 27.5,25.818 C27.556,25.994 27.612,26.166 27.666,26.33 C27.814,26.784 27.998,27.349 28,27.5 Z M22.337,16.542 C22.576,16.172 22.946,16 23.5,16 C25.375,16 26.867,17.942 27.584,19.088 C26.916,19.03 26.216,19 25.5,19 C24.293,19 23.128,19.086 22.09,19.246 C21.916,17.999 21.997,17.068 22.337,16.542 Z M20.688,20.567 C20.877,20.513 21.076,20.463 21.283,20.416 C21.382,20.883 21.508,21.379 21.661,21.905 C21.741,22.181 21.824,22.451 21.909,22.711 C21.471,22.633 21.061,22.541 20.689,22.434 C19.487,22.091 19.098,21.725 19.018,21.559 L19.004,21.478 C19.039,21.336 19.387,20.939 20.688,20.567 Z M30.089,32.925 C30.067,33.059 29.925,33.279 29.811,33.358 C29.75,33.393 28.657,34 25.5,34 C22.343,34 21.249,33.393 21.189,33.358 C21.075,33.279 20.934,33.059 20.911,32.925 L19.251,22.966 C19.577,23.124 19.965,23.267 20.413,23.395 C20.969,23.554 21.597,23.683 22.276,23.781 C22.678,24.887 23.022,25.657 23.044,25.705 C23.127,25.89 23.31,26 23.5,26 C23.569,26 23.638,25.986 23.705,25.956 C23.957,25.843 24.069,25.547 23.956,25.295 C23.952,25.285 23.707,24.738 23.392,23.91 C24.067,23.969 24.776,24 25.5,24 C25.995,24 26.482,23.986 26.957,23.958 C26.857,24.571 26.6,25.359 26.384,26.02 C26.132,26.793 26,27.21 26,27.5 C26,28.327 26.673,29 27.5,29 C28.327,29 29,28.327 29,27.5 C29,27.21 28.868,26.793 28.616,26.02 C28.39,25.326 28.118,24.493 28.029,23.869 C28.976,23.767 29.846,23.607 30.586,23.395 C31.033,23.267 31.422,23.123 31.748,22.966 L30.088,32.925 L30.089,32.925 Z" id="Shape" fill="#8D8D8D" fill-rule="nonzero"></path>
            </g>
        </g>
    </g>
</svg>