<?xml version="1.0" encoding="UTF-8"?>
<svg width="50px" height="50px" viewBox="0 0 50 50" version="1.1" xmlns="http://www.w3.org/2000/svg" xmlns:xlink="http://www.w3.org/1999/xlink">
    <title>Group 17</title>
    <g id="Icons" stroke="none" stroke-width="1" fill="none" fill-rule="evenodd">
        <g id="Artboard" transform="translate(-436.000000, -269.000000)">
            <g id="Group-17" transform="translate(436.000000, 269.000000)">
                <rect id="Rectangle-Copy-6" fill="#2C2C2C" opacity="0" x="0" y="0" width="50" height="50" rx="7"></rect>
                <path d="M28.5,21 L26.5,21 C26.224,21 26,20.776 26,20.5 L26,17.5 C26,17.224 26.224,17 26.5,17 L28.5,17 C28.776,17 29,17.224 29,17.5 L29,20.5 C29,20.776 28.776,21 28.5,21 Z M27,20 L28,20 L28,18 L27,18 L27,20 Z" id="Shape" fill="#8D8D8D" fill-rule="nonzero"></path>
                <path d="M34.854,17.646 L32.354,15.146 C32.26,15.052 32.133,15 32,15 L15.5,15 C15.224,15 15,15.224 15,15.5 L15,34.5 C15,34.776 15.224,35 15.5,35 L34.5,35 C34.776,35 35,34.776 35,34.5 L35,18 C35,17.867 34.947,17.74 34.854,17.646 Z M21,16 L30,16 L30,22 L21,22 L21,16 Z M31,34 L19,34 L19,26 L31,26 L31,34 Z M34,34 L32,34 L32,25.5 C32,25.224 31.776,25 31.5,25 L18.5,25 C18.224,25 18,25.224 18,25.5 L18,34 L16,34 L16,16 L20,16 L20,22.5 C20,22.776 20.224,23 20.5,23 L30.5,23 C30.776,23 31,22.776 31,22.5 L31,16 L31.793,16 L34,18.207 L34,34 Z" id="Shape" fill="#8D8D8D" fill-rule="nonzero"></path>
            </g>
        </g>
    </g>
</svg>