<?xml version="1.0" encoding="UTF-8"?>
<svg width="42px" height="43px" viewBox="0 0 42 43" version="1.1" xmlns="http://www.w3.org/2000/svg" xmlns:xlink="http://www.w3.org/1999/xlink">
    <title>circle-back</title>
    <defs>
        <filter id="filter-1">
            <feColorMatrix in="SourceGraphic" type="matrix" values="0 0 0 0 1.000000 0 0 0 0 1.000000 0 0 0 0 1.000000 0 0 0 1.000000 0"></feColorMatrix>
        </filter>
    </defs>
    <g id="circle-back" stroke="none" stroke-width="1" fill="none" fill-rule="evenodd">
        <g id="CircleLeft" filter="url(#filter-1)">
            <g transform="translate(0.001104, -0.001120)">
                <path d="M6.14377912,6.22887301 C2.18119068,10.2463449 -0.00110440035,15.5895378 -0.00110440035,21.2731185 C-0.00110440035,26.9566992 2.18119068,32.2976527 6.14377912,36.317364 C10.1063676,40.3370754 15.376566,42.5473568 20.9825022,42.5473568 C26.5884383,42.5473568 31.856428,40.334836 35.8212252,36.317364 C39.7860224,32.2998921 41.9661087,26.9566992 41.9661087,21.2753579 C41.9661087,15.5940166 39.7838136,10.2508237 35.8212252,6.23111241 C31.8586368,2.21140108 26.5884383,0.00111969675 20.9825022,0.00111969675 C15.376566,0.00111969675 10.1085764,2.21364047 6.14377912,6.23111241 L6.14377912,6.22887301 Z M39.757308,21.2731185 C39.757308,31.7691559 31.335151,40.3079633 20.9825022,40.3079633 C10.6298533,40.3079633 2.20769629,31.7691559 2.20769629,21.2731185 C2.20769629,10.7770812 10.6298533,2.2382738 20.9825022,2.2382738 C31.335151,2.2382738 39.757308,10.7770812 39.757308,21.2731185 Z" id="Shape" fill="#8D8D8D" fill-rule="nonzero" transform="translate(20.982502, 21.274238) rotate(-90.000000) translate(-20.982502, -21.274238) "></path>
                <path d="M20.7430806,7.79225954 L11.7855066,16.6274623 C11.3488248,17.0581784 11.3488248,17.7583683 11.7855066,18.1890844 C12.2221883,18.6198005 12.932076,18.6198005 13.3687578,18.1890844 L20.4138897,11.2379886 L20.4138897,33.9731741 C20.4138897,34.5828031 20.9155139,35.0775745 21.5335865,35.0775745 C22.1516591,35.0775745 22.6532832,34.5828031 22.6532832,33.9731741 L22.6532832,11.2379886 L29.7006545,18.1868756 C30.1373363,18.6175917 30.847224,18.6175917 31.2839057,18.1868756 C31.5033663,17.9704131 31.6108572,17.6876866 31.6108572,17.4071689 C31.6108572,17.1266513 31.5011269,16.841716 31.2816664,16.6274623 L22.3240924,7.79225954 C21.8874106,7.36154341 21.1775229,7.36154341 20.7408412,7.79225954 L20.7430806,7.79225954 Z" id="Path" fill="#8D8D8D" fill-rule="nonzero" transform="translate(21.534426, 21.273398) rotate(-90.000000) translate(-21.534426, -21.273398) "></path>
            </g>
        </g>
    </g>
</svg>