<?xml version="1.0" encoding="UTF-8"?>
<svg width="20px" height="20px" viewBox="0 0 20 20" version="1.1" xmlns="http://www.w3.org/2000/svg" xmlns:xlink="http://www.w3.org/1999/xlink">
    <title>Group 3</title>
    <g id="Icons" stroke="none" stroke-width="1" fill="none" fill-rule="evenodd">
        <g id="Artboard" transform="translate(-1054.000000, -934.000000)" fill="#8D8D8D" fill-rule="nonzero">
            <g id="Group-3" transform="translate(1054.000000, 934.000000)">
                <path d="M2.92842105,2.92736842 C1.04,4.81578947 0,7.32736842 0,9.99894737 C0,12.6705263 1.04,15.1810526 2.92842105,17.0705263 C4.81684211,18.96 7.32842105,19.9989474 10,19.9989474 C12.6715789,19.9989474 15.1821053,18.9589474 17.0715789,17.0705263 C18.9610526,15.1821053 20,12.6705263 20,10 C20,7.32947368 18.96,4.81789474 17.0715789,2.92842105 C15.1831579,1.03894737 12.6715789,1.66533454e-14 10,1.66533454e-14 C7.32842105,1.66533454e-14 4.81789474,1.04 2.92842105,2.92842105 L2.92842105,2.92736842 Z M18.9473684,9.99894737 C18.9473684,14.9326316 14.9336842,18.9463158 10,18.9463158 C5.06631579,18.9463158 1.05263158,14.9326316 1.05263158,9.99894737 C1.05263158,5.06526316 5.06631579,1.05157895 10,1.05157895 C14.9336842,1.05157895 18.9473684,5.06526316 18.9473684,9.99894737 Z" id="Shape"></path>
                <path d="M9.62842105,3.83789474 L5.41789474,8.04842105 C5.21263158,8.25368421 5.21263158,8.58736842 5.41789474,8.79263158 C5.62315789,8.99789474 5.95684211,8.99789474 6.16210526,8.79263158 L9.47368421,5.48 L9.47368421,16.3147368 C9.47368421,16.6052632 9.70947368,16.8410526 10,16.8410526 C10.2905263,16.8410526 10.5263158,16.6052632 10.5263158,16.3147368 L10.5263158,5.48 L13.8389474,8.79157895 C14.0442105,8.99684211 14.3778947,8.99684211 14.5831579,8.79157895 C14.6863158,8.68842105 14.7368421,8.55368421 14.7368421,8.42 C14.7368421,8.28631579 14.6852632,8.15052632 14.5821053,8.04842105 L10.3715789,3.83789474 C10.1663158,3.63263158 9.83263158,3.63263158 9.62736842,3.83789474 L9.62842105,3.83789474 Z" id="Path"></path>
            </g>
        </g>
    </g>
</svg>