<?xml version="1.0" encoding="UTF-8"?>
<svg width="20px" height="20px" viewBox="0 0 20 20" version="1.1" xmlns="http://www.w3.org/2000/svg" xmlns:xlink="http://www.w3.org/1999/xlink">
    <title>Group</title>
    <g id="Icons" stroke="none" stroke-width="1" fill="none" fill-rule="evenodd">
        <g id="Artboard" transform="translate(-783.000000, -723.000000)" fill="#8D8D8D" fill-rule="nonzero">
            <g id="Group" transform="translate(783.000000, 723.000000)">
                <path d="M10,20 C7.32842105,20 4.81789474,18.96 2.92842105,17.0715789 C1.03894737,15.1831579 0,12.6715789 0,10.0010526 C0,7.32947368 1.04,4.81894737 2.92842105,2.92947368 C4.81684211,1.04 7.32842105,1.11022302e-15 10,1.11022302e-15 C12.6715789,1.11022302e-15 15.1821053,1.04 17.0715789,2.92947368 C18.9610526,4.81894737 20,7.32947368 20,10.0010526 C20,12.6726316 18.96,15.1831579 17.0715789,17.0715789 C15.1831579,18.96 12.6715789,20 10,20 Z M10,1.05263158 C5.06631579,1.05263158 1.05263158,5.06631579 1.05263158,10 C1.05263158,14.9336842 5.06631579,18.9473684 10,18.9473684 C14.9336842,18.9473684 18.9473684,14.9336842 18.9473684,10 C18.9473684,5.06631579 14.9336842,1.05263158 10,1.05263158 Z" id="Shape"></path>
                <path d="M7.89473684,14.2105263 C7.76,14.2105263 7.62526316,14.1589474 7.52210526,14.0568421 L4.36421053,10.8989474 C4.15894737,10.6936842 4.15894737,10.36 4.36421053,10.1547368 C4.56947368,9.94947368 4.90315789,9.94947368 5.10842105,10.1547368 L7.89368421,12.94 L14.8894737,5.94421053 C15.0947368,5.73894737 15.4284211,5.73894737 15.6336842,5.94421053 C15.8389474,6.14947368 15.8389474,6.48315789 15.6336842,6.68842105 L8.26526316,14.0568421 C8.16210526,14.16 8.02736842,14.2105263 7.89263158,14.2105263 L7.89473684,14.2105263 Z" id="Path"></path>
            </g>
        </g>
    </g>
</svg>