<?xml version="1.0" encoding="UTF-8"?>
<svg width="20px" height="20px" viewBox="0 0 20 20" version="1.1" xmlns="http://www.w3.org/2000/svg" xmlns:xlink="http://www.w3.org/1999/xlink">
    <title>Group 16</title>
    <g id="Icons" stroke="none" stroke-width="1" fill="none" fill-rule="evenodd">
        <g id="Artboard" transform="translate(-773.000000, -566.000000)">
            <g id="Group-16" transform="translate(773.000000, 566.000000)">
                <g id="Group-7" transform="translate(1.000000, 2.000000)" fill="#8D8D8D" fill-rule="nonzero">
                    <path d="M18.5,4 C18.224,4 18,3.776 18,3.5 L18,1.5 C18,1.224 17.776,1 17.5,1 L15.5,1 C15.224,1 15,0.776 15,0.5 C15,0.224 15.224,0 15.5,0 L17.5,0 C18.327,0 19,0.673 19,1.5 L19,3.5 C19,3.776 18.776,4 18.5,4 Z" id="Path"></path>
                    <path d="M0.5,4 C0.224,4 0,3.776 0,3.5 L0,1.5 C0,0.673 0.673,0 1.5,0 L3.5,0 C3.776,0 4,0.224 4,0.5 C4,0.776 3.776,1 3.5,1 L1.5,1 C1.224,1 1,1.224 1,1.5 L1,3.5 C1,3.776 0.776,4 0.5,4 Z" id="Path"></path>
                    <path d="M3.5,15 L1.5,15 C0.673,15 0,14.327 0,13.5 L0,11.5 C0,11.224 0.224,11 0.5,11 C0.776,11 1,11.224 1,11.5 L1,13.5 C1,13.776 1.224,14 1.5,14 L3.5,14 C3.776,14 4,14.224 4,14.5 C4,14.776 3.776,15 3.5,15 Z" id="Path"></path>
                    <path d="M17.5,15 L15.5,15 C15.224,15 15,14.776 15,14.5 C15,14.224 15.224,14 15.5,14 L17.5,14 C17.776,14 18,13.776 18,13.5 L18,11.5 C18,11.224 18.224,11 18.5,11 C18.776,11 19,11.224 19,11.5 L19,13.5 C19,14.327 18.327,15 17.5,15 Z" id="Path"></path>
                </g>
                <rect id="Rectangle-Copy" fill="#D8D8D8" opacity="0" x="0" y="0" width="20" height="20"></rect>
            </g>
        </g>
    </g>
</svg>