<?xml version="1.0" encoding="UTF-8"?>
<svg width="50px" height="50px" viewBox="0 0 50 50" version="1.1" xmlns="http://www.w3.org/2000/svg" xmlns:xlink="http://www.w3.org/1999/xlink">
    <title>Group 26</title>
    <g id="Icons" stroke="none" stroke-width="1" fill="none" fill-rule="evenodd">
        <g id="Artboard" transform="translate(-636.000000, -269.000000)">
            <g id="Group-26" transform="translate(636.000000, 269.000000)">
                <rect id="Rectangle-Copy-8" fill="#2C2C2C" opacity="0" x="0" y="0" width="50" height="50" rx="7"></rect>
                <g id="Group-23" transform="translate(15.000000, 15.000000)" fill="#8D8D8D" fill-rule="nonzero">
                    <path d="M8.50080747,12.001 C8.36880747,12.001 8.24080747,11.948 8.14780747,11.854 C8.05480747,11.76 8.00080747,11.632 8.00080747,11.501 C8.00080747,11.37 8.05380747,11.24 8.14780747,11.148 C8.24080747,11.055 8.36980747,11.001 8.50080747,11.001 C8.63180747,11.001 8.76180747,11.054 8.85380747,11.148 C8.94680747,11.241 9.00080747,11.37 9.00080747,11.501 C9.00080747,11.632 8.94780747,11.762 8.85380747,11.854 C8.76080747,11.947 8.63180747,12.001 8.50080747,12.001 Z" id="Path"></path>
                    <path d="M19.3138075,14.916 C18.5658075,13.733 17.3678075,12.997 16.1878075,12.997 C15.6998075,12.997 15.2328075,13.129 14.8368075,13.379 C14.2048075,13.778 13.7938075,14.437 13.6628075,15.248 L12.3548075,13.232 C12.3518075,13.228 12.3488075,13.223 12.3468075,13.219 L3.91980747,0.229 C3.82780747,0.087 3.66980747,0.001 3.50080747,0.001 C3.50080747,0.001 3.49980747,0.001 3.49980747,0.001 C3.32980747,0.002 3.17180747,0.088 3.07980747,0.231 L2.33780747,1.389 C1.94480747,2.003 1.88580747,2.961 2.20180747,3.619 L6.61780747,12.816 C6.93680747,13.481 7.76380747,14.001 8.50180747,14.001 L11.6608075,13.998 L14.2388075,17.973 C14.2608075,18.01 14.2828075,18.047 14.3058075,18.083 C15.0538075,19.266 16.2518075,20.002 17.4318075,20.002 C17.4318075,20.002 17.4318075,20.002 17.4318075,20.002 C17.9198075,20.002 18.3868075,19.87 18.7818075,19.62 C19.4718075,19.184 19.8988075,18.439 19.9848075,17.523 C20.0658075,16.656 19.8278075,15.73 19.3138075,14.916 Z M8.50080747,13.001 C8.14180747,13.001 7.67380747,12.706 7.51880747,12.383 L3.10280747,3.186 C2.93980747,2.846 2.97580747,2.246 3.17980747,1.929 L3.50280747,1.424 L11.0108075,12.998 L8.49980747,13.001 L8.50080747,13.001 Z M18.9898075,17.429 C18.9338075,18.029 18.6698075,18.507 18.2478075,18.774 C18.0098075,18.925 17.7348075,19.001 17.4318075,19.001 C17.4318075,19.001 17.4318075,19.001 17.4318075,19.001 C16.6588075,19.001 15.8268075,18.503 15.2658075,17.718 L15.0908075,17.448 C14.7358075,16.846 14.5728075,16.184 14.6308075,15.569 C14.6868075,14.969 14.9508075,14.491 15.3728075,14.224 C15.6108075,14.073 15.8858075,13.997 16.1888075,13.997 C17.0168075,13.997 17.9118075,14.567 18.4698075,15.45 C18.8668075,16.078 19.0518075,16.78 18.9908075,17.429 L18.9898075,17.429 Z" id="Shape"></path>
                    <path d="M13.5008075,11.918 C13.4278075,11.918 13.3548075,11.902 13.2848075,11.869 C13.0358075,11.749 12.9308075,11.451 13.0508075,11.202 L16.8988075,3.186 C17.0618075,2.846 17.0258075,2.246 16.8218075,1.929 L16.4988075,1.424 L11.9208075,8.481 C11.7708075,8.713 11.4608075,8.779 11.2288075,8.628 C10.9968075,8.477 10.9308075,8.168 11.0818075,7.936 L16.0818075,0.228 C16.1738075,0.086 16.3318075,-5.32907052e-14 16.5008075,-5.32907052e-14 C16.5008075,-5.32907052e-14 16.5018075,-5.32907052e-14 16.5018075,-5.32907052e-14 C16.6718075,0.001 16.8298075,0.087 16.9218075,0.23 L17.6638075,1.388 C18.0568075,2.002 18.1158075,2.96 17.7998075,3.618 L13.9518075,11.634 C13.8658075,11.813 13.6868075,11.918 13.5008075,11.918 Z" id="Path"></path>
                    <path d="M7.04280747,15.082 C6.81080747,14.932 6.50180747,14.998 6.35080747,15.229 L6.33780747,15.249 C6.20680747,14.437 5.79580747,13.779 5.16380747,13.38 C4.76880747,13.13 4.30180747,12.998 3.81280747,12.998 C2.63280747,12.998 1.43480747,13.733 0.686807471,14.917 C0.172807471,15.73 -0.0661925287,16.656 0.0158074713,17.524 C0.101807471,18.44 0.528807471,19.184 1.21880747,19.621 C1.61380747,19.871 2.08080747,20.003 2.56880747,20.003 C3.74880747,20.003 4.94680747,19.268 5.69480747,18.084 C5.71780747,18.048 5.73980747,18.011 5.76180747,17.974 L7.18880747,15.774 C7.33880747,15.542 7.27280747,15.233 7.04180747,15.082 L7.04280747,15.082 Z M2.56980747,19.001 C2.26680747,19.001 1.99180747,18.925 1.75380747,18.774 C1.33180747,18.507 1.06780747,18.03 1.01180747,17.429 C0.950807471,16.78 1.13580747,16.078 1.53280747,15.45 C2.09080747,14.567 2.98580747,13.997 3.81380747,13.997 C4.11680747,13.997 4.39180747,14.073 4.62980747,14.224 C5.05180747,14.491 5.31580747,14.968 5.37180747,15.569 C5.42980747,16.183 5.26580747,16.846 4.91180747,17.447 L4.73680747,17.717 C4.17580747,18.502 3.34380747,19 2.57080747,19 L2.56980747,19.001 Z" id="Shape"></path>
                </g>
            </g>
        </g>
    </g>
</svg>