<?xml version="1.0" encoding="UTF-8"?>
<svg width="50px" height="50px" viewBox="0 0 50 50" version="1.1" xmlns="http://www.w3.org/2000/svg" xmlns:xlink="http://www.w3.org/1999/xlink">
    <title>Group 9</title>
    <g id="Icons" stroke="none" stroke-width="1" fill="none" fill-rule="evenodd">
        <g id="Artboard" transform="translate(-229.000000, -636.000000)">
            <g id="Group-9" transform="translate(229.000000, 636.000000)">
                <g id="Group-15">
                    <rect id="Rectangle-Copy-6" x="0" y="0" width="50" height="50"></rect>
                </g>
                <g id="Group" transform="translate(16.000000, 15.000000)" fill="#8D8D8D" fill-rule="nonzero">
                    <path d="M2.5,20 C2.224,20 2,19.776 2,19.5 L2,11.5 C2,11.224 2.224,11 2.5,11 C2.776,11 3,11.224 3,11.5 L3,19.5 C3,19.776 2.776,20 2.5,20 Z" id="Path"></path>
                    <path d="M2.5,6 C2.224,6 2,5.776 2,5.5 L2,0.5 C2,0.224 2.224,0 2.5,0 C2.776,0 3,0.224 3,0.5 L3,5.5 C3,5.776 2.776,6 2.5,6 Z" id="Path"></path>
                    <path d="M3.5,10 L1.5,10 C0.673,10 0,9.327 0,8.5 C0,7.673 0.673,7 1.5,7 L3.5,7 C4.327,7 5,7.673 5,8.5 C5,9.327 4.327,10 3.5,10 Z M1.5,8 C1.224,8 1,8.224 1,8.5 C1,8.776 1.224,9 1.5,9 L3.5,9 C3.776,9 4,8.776 4,8.5 C4,8.224 3.776,8 3.5,8 L1.5,8 Z" id="Shape"></path>
                    <path d="M9.5,20 C9.224,20 9,19.776 9,19.5 L9,15.5 C9,15.224 9.224,15 9.5,15 C9.776,15 10,15.224 10,15.5 L10,19.5 C10,19.776 9.776,20 9.5,20 Z" id="Path"></path>
                    <path d="M9.5,10 C9.224,10 9,9.776 9,9.5 L9,0.5 C9,0.224 9.224,0 9.5,0 C9.776,0 10,0.224 10,0.5 L10,9.5 C10,9.776 9.776,10 9.5,10 Z" id="Path"></path>
                    <path d="M10.5,14 L8.5,14 C7.673,14 7,13.327 7,12.5 C7,11.673 7.673,11 8.5,11 L10.5,11 C11.327,11 12,11.673 12,12.5 C12,13.327 11.327,14 10.5,14 Z M8.5,12 C8.224,12 8,12.224 8,12.5 C8,12.776 8.224,13 8.5,13 L10.5,13 C10.776,13 11,12.776 11,12.5 C11,12.224 10.776,12 10.5,12 L8.5,12 Z" id="Shape"></path>
                    <path d="M16.5,20 C16.224,20 16,19.776 16,19.5 L16,9.5 C16,9.224 16.224,9 16.5,9 C16.776,9 17,9.224 17,9.5 L17,19.5 C17,19.776 16.776,20 16.5,20 Z" id="Path"></path>
                    <path d="M16.5,4 C16.224,4 16,3.776 16,3.5 L16,0.5 C16,0.224 16.224,0 16.5,0 C16.776,0 17,0.224 17,0.5 L17,3.5 C17,3.776 16.776,4 16.5,4 Z" id="Path"></path>
                    <path d="M17.5,8 L15.5,8 C14.673,8 14,7.327 14,6.5 C14,5.673 14.673,5 15.5,5 L17.5,5 C18.327,5 19,5.673 19,6.5 C19,7.327 18.327,8 17.5,8 Z M15.5,6 C15.224,6 15,6.224 15,6.5 C15,6.776 15.224,7 15.5,7 L17.5,7 C17.776,7 18,6.776 18,6.5 C18,6.224 17.776,6 17.5,6 L15.5,6 Z" id="Shape"></path>
                </g>
            </g>
        </g>
    </g>
</svg>