<?xml version="1.0" encoding="UTF-8"?>
<svg width="50px" height="50px" viewBox="0 0 50 50" version="1.1" xmlns="http://www.w3.org/2000/svg" xmlns:xlink="http://www.w3.org/1999/xlink">
    <title>Group 16</title>
    <g id="Icons" stroke="none" stroke-width="1" fill="none" fill-rule="evenodd">
        <g id="Artboard" transform="translate(-229.000000, -460.000000)">
            <g id="Group-16" transform="translate(229.000000, 460.000000)">
                <rect id="Rectangle" fill="#2C2C2C" opacity="0" x="0" y="0" width="50" height="50" rx="7"></rect>
                <path d="M34.4515334,19.717 C34.4255334,19.562 34.3745334,19.412 34.2965334,19.271 C34.1825334,19.062 34.0205334,18.891 33.8245334,18.765 C33.8225334,18.764 33.8215334,18.763 33.8195334,18.762 C33.8095334,18.755 33.7985334,18.749 33.7875334,18.742 C33.6915334,18.683 33.5825334,18.634 33.4605334,18.597 C33.4365334,18.59 33.4115334,18.583 33.3865334,18.576 L27.3265334,17.061 C27.1645334,17.021 26.9865334,17 26.7965334,17 C26.1975334,17 25.5465334,17.205 25.1385334,17.523 L17.7175334,23.295 C17.2075334,23.691 16.6485334,24.482 16.4445334,25.094 L15.0765334,29.197 C14.9475334,29.583 14.9825334,29.988 15.1745334,30.337 C15.3665334,30.686 15.6895334,30.933 16.0835334,31.031 L22.1435334,32.546 C22.3055334,32.586 22.4835334,32.607 22.6735334,32.607 C23.1475334,32.607 23.6545334,32.478 24.0475334,32.266 C24.1385334,32.22 24.2335334,32.16 24.3315334,32.084 L31.7525334,26.312 C32.2625334,25.916 32.8215334,25.125 33.0255334,24.513 L34.3935334,20.41 C34.4855334,20.135 34.5045334,19.906 34.4505334,19.716 L34.4515334,19.717 Z M26.7985334,18.001 C26.9055334,18.001 27.0045334,18.012 27.0855334,18.032 L33.1185334,19.54 L25.7185334,25.295 C25.4825334,25.479 25.0525334,25.607 24.6745334,25.607 C24.5675334,25.607 24.4685334,25.596 24.3875334,25.576 L18.3545334,24.068 L25.7545334,18.313 C25.9905334,18.129 26.4205334,18.001 26.7985334,18.001 Z M16.0525334,29.856 C15.9965334,29.754 15.9875334,29.632 16.0265334,29.513 L17.3945334,25.41 C17.4865334,25.134 17.8025334,24.96 18.0855334,25.031 C18.0855334,25.031 18.0855334,25.031 18.0855334,25.031 L24.1455334,26.546 C24.2665334,26.576 24.3645334,26.649 24.4205334,26.751 C24.4765334,26.853 24.4855334,26.975 24.4465334,27.094 L23.0785334,31.197 C22.9865334,31.473 22.6695334,31.647 22.3875334,31.576 L21.3575334,31.319 C21.3575334,31.319 21.3575334,31.319 21.3575334,31.319 L16.3275334,30.062 C16.2065334,30.032 16.1085334,29.959 16.0525334,29.856 Z M31.1405334,25.523 L24.2335334,30.895 L25.3955334,27.41 C25.5385334,26.981 25.9765334,26.361 26.3335334,26.084 L33.2405334,20.712 L32.0785334,24.197 C31.9355334,24.626 31.4975334,25.245 31.1405334,25.523 Z" id="Shape" fill="#8D8D8D" fill-rule="nonzero"></path>
            </g>
        </g>
    </g>
</svg>