<?xml version="1.0" encoding="UTF-8"?>
<svg width="20px" height="20px" viewBox="0 0 20 20" version="1.1" xmlns="http://www.w3.org/2000/svg" xmlns:xlink="http://www.w3.org/1999/xlink">
    <title>Shape</title>
    <g id="Icons" stroke="none" stroke-width="1" fill="none" fill-rule="evenodd">
        <g id="Artboard" transform="translate(-543.000000, -410.000000)" fill="#8D8D8D" fill-rule="nonzero">
            <path d="M563,413.305372 C563,412.422088 562.656686,411.592134 562.032276,410.967724 C561.407866,410.343314 560.577912,410 559.694628,410 C558.811344,410 557.98139,410.343314 557.35698,410.967724 L553.554969,414.769735 L552.837231,414.051997 C552.620577,413.835342 552.268374,413.835342 552.051719,414.051997 C551.835065,414.268652 551.835065,414.620854 552.051719,414.837509 L553.324982,416.110772 L545.419866,424.015888 C544.987667,424.448086 544.732126,425.020277 544.688795,425.619132 C543.71996,425.859119 543,426.734626 543,427.77679 C543,429.002278 543.996611,429.998889 545.222099,429.998889 C546.263152,429.998889 547.13977,429.278929 547.379757,428.310094 C547.978612,428.266763 548.551914,428.011222 548.983001,427.579023 L556.888117,419.673907 L558.16138,420.94717 C558.270263,421.056052 558.412477,421.109383 558.554691,421.109383 C558.696906,421.109383 558.83912,421.054941 558.948003,420.94717 C559.164658,420.730515 559.164658,420.378312 558.948003,420.161658 L558.230265,419.44392 L562.032276,415.641909 C562.656686,415.017499 563,414.187545 563,413.304261 L563,413.305372 Z M548.1986,426.793511 C547.879729,427.112383 547.423088,427.260152 546.977557,427.187934 C546.814233,427.161269 546.648686,427.209044 546.524249,427.317927 C546.399811,427.42681 546.329815,427.584579 546.334259,427.750125 C546.334259,427.759013 546.334259,427.767902 546.334259,427.77679 C546.334259,428.388978 545.835398,428.88784 545.22321,428.88784 C544.611022,428.88784 544.11216,428.388978 544.11216,427.77679 C544.11216,427.164602 544.611022,426.665741 545.22321,426.665741 C545.232098,426.665741 545.240987,426.665741 545.249875,426.665741 C545.41431,426.669074 545.57319,426.600189 545.680962,426.475751 C545.788734,426.351314 545.836509,426.185767 545.810955,426.022443 C545.739848,425.576912 545.886506,425.120271 546.205377,424.8014 L554.110494,416.896284 L556.102605,418.888395 L548.197489,426.793511 L548.1986,426.793511 Z M561.246764,414.856397 L557.444753,418.658408 L554.341592,415.555247 L558.143603,411.753236 C558.558025,411.338815 559.109105,411.111049 559.694628,411.111049 C560.280151,411.111049 560.831232,411.338815 561.245653,411.753236 C561.660074,412.167657 561.88784,412.718738 561.88784,413.304261 C561.88784,413.889784 561.660074,414.440864 561.245653,414.855286 L561.246764,414.856397 Z" id="Shape"></path>
        </g>
    </g>
</svg>