<?xml version="1.0" encoding="UTF-8"?>
<svg width="50px" height="50px" viewBox="0 0 50 50" version="1.1" xmlns="http://www.w3.org/2000/svg" xmlns:xlink="http://www.w3.org/1999/xlink">
    <title>Group 3</title>
    <g id="Icons" stroke="none" stroke-width="1" fill="none" fill-rule="evenodd">
        <g id="Artboard" transform="translate(-528.000000, -395.000000)">
            <g id="Group-3" transform="translate(528.000000, 395.000000)">
                <rect id="Rectangle-Copy-6" fill="#2C2C2C" opacity="0" x="0" y="0" width="50" height="50" rx="7"></rect>
                <path d="M35,18.3053719 C35,17.4220877 34.6566857,16.5921338 34.032276,15.967724 C33.4078662,15.3433143 32.5779123,15 31.6946281,15 C30.8113438,15 29.9813899,15.3433143 29.3569802,15.967724 L25.5549692,19.769735 L24.8372313,19.0519971 C24.6205766,18.8353425 24.268374,18.8353425 24.0517193,19.0519971 C23.8350647,19.2686517 23.8350647,19.6208544 24.0517193,19.837509 L25.3249819,21.1107716 L17.4198656,29.015888 C16.9876674,29.4480862 16.732126,30.0202767 16.6887951,30.6191323 C15.71996,30.8591189 15,31.7346259 15,32.7767902 C15,34.0022777 15.9966113,34.998889 17.2220988,34.998889 C18.263152,34.998889 19.13977,34.2789289 19.3797567,33.3100939 C19.9786123,33.266763 20.5519138,33.0112216 20.9830009,32.5790234 L28.8881173,24.673907 L30.1613799,25.9471696 C30.2702628,26.0560524 30.4124771,26.1093828 30.5546914,26.1093828 C30.6969057,26.1093828 30.83912,26.0549414 30.9480029,25.9471696 C31.1646575,25.730515 31.1646575,25.3783123 30.9480029,25.1616577 L30.230265,24.4439198 L34.032276,20.6419088 C34.6566857,20.017499 35,19.1875451 35,18.3042609 L35,18.3053719 Z M20.1986001,31.7935115 C19.8797289,32.1123826 19.4230876,32.2601522 18.9775568,32.187934 C18.8142325,32.1612688 18.6486862,32.2090439 18.5242487,32.3179268 C18.3998111,32.4268096 18.329815,32.5845786 18.3342592,32.750125 C18.3342592,32.7590134 18.3342592,32.7679018 18.3342592,32.7767902 C18.3342592,33.3889784 17.835398,33.8878396 17.2232098,33.8878396 C16.6110216,33.8878396 16.1121604,33.3889784 16.1121604,32.7767902 C16.1121604,32.164602 16.6110216,31.6657408 17.2232098,31.6657408 C17.2320982,31.6657408 17.2409866,31.6657408 17.249875,31.6657408 C17.4143103,31.6690739 17.5731904,31.6001889 17.6809622,31.4757513 C17.788734,31.3513138 17.8365091,31.1857675 17.8109549,31.0224432 C17.7398478,30.5769124 17.8865063,30.1202711 18.2053775,29.8013999 L26.1104939,21.8962835 L28.1026054,23.8883951 L20.197489,31.7935115 L20.1986001,31.7935115 Z M33.2467641,19.8563969 L29.4447531,23.6584079 L26.3415921,20.5552469 L30.1436031,16.7532359 C30.5580246,16.3388145 31.109105,16.1110494 31.6946281,16.1110494 C32.2801511,16.1110494 32.8312316,16.3388145 33.245653,16.7532359 C33.6600744,17.1676574 33.8878396,17.7187378 33.8878396,18.3042609 C33.8878396,18.8897839 33.6600744,19.4408644 33.245653,19.8552858 L33.2467641,19.8563969 Z" id="Shape" fill="#8D8D8D" fill-rule="nonzero"></path>
            </g>
        </g>
    </g>
</svg>