<?xml version="1.0" encoding="UTF-8"?>
<svg width="20px" height="20px" viewBox="0 0 20 20" version="1.1" xmlns="http://www.w3.org/2000/svg" xmlns:xlink="http://www.w3.org/1999/xlink">
    <title>Group 13</title>
    <g id="Icons" stroke="none" stroke-width="1" fill="none" fill-rule="evenodd">
        <g id="Artboard" transform="translate(-773.000000, -511.000000)">
            <g id="Group-13" transform="translate(773.000000, 511.000000)">
                <g id="Group-12" transform="translate(1.000000, 2.000000)" fill="#8D8D8D" fill-rule="nonzero">
                    <path d="M17.5,15 L1.5,15 C0.673,15 0,14.327 0,13.5 L0,1.5 C0,0.673 0.673,0 1.5,0 L17.5,0 C18.327,0 19,0.673 19,1.5 L19,13.5 C19,14.327 18.327,15 17.5,15 Z M1.5,1 C1.224,1 1,1.224 1,1.5 L1,13.5 C1,13.776 1.224,14 1.5,14 L17.5,14 C17.776,14 18,13.776 18,13.5 L18,1.5 C18,1.224 17.776,1 17.5,1 L1.5,1 Z" id="Shape"></path>
                    <path d="M16.5,2 L13.5,2 C13.224,2 13,2.224 13,2.5 C13,2.776 13.224,3 13.5,3 L15.293,3 L13.147,5.146 C12.952,5.341 12.952,5.658 13.147,5.853 C13.245,5.951 13.373,5.999 13.501,5.999 C13.629,5.999 13.757,5.95 13.855,5.853 L16.001,3.707 L16.001,5.5 C16.001,5.776 16.225,6 16.501,6 C16.777,6 17.001,5.776 17.001,5.5 L17.001,2.5 C17.001,2.224 16.777,2 16.501,2 L16.5,2 Z" id="Path"></path>
                    <path d="M5.5,12 L3.707,12 L5.853,9.854 C6.048,9.659 6.048,9.342 5.853,9.147 C5.658,8.952 5.341,8.952 5.146,9.147 L3,11.293 L3,9.5 C3,9.224 2.776,9 2.5,9 C2.224,9 2,9.224 2,9.5 L2,12.5 C2,12.776 2.224,13 2.5,13 L5.5,13 C5.776,13 6,12.776 6,12.5 C6,12.224 5.776,12 5.5,12 Z" id="Path"></path>
                </g>
                <rect id="Rectangle" fill="#D8D8D8" opacity="0" x="0" y="0" width="20" height="20"></rect>
            </g>
        </g>
    </g>
</svg>