<?xml version="1.0" encoding="UTF-8"?>
<svg width="50px" height="50px" viewBox="0 0 50 50" version="1.1" xmlns="http://www.w3.org/2000/svg" xmlns:xlink="http://www.w3.org/1999/xlink">
    <title>Group 31</title>
    <g id="Icons" stroke="none" stroke-width="1" fill="none" fill-rule="evenodd">
        <g id="Artboard" transform="translate(-468.000000, -568.000000)">
            <g id="Group-31" transform="translate(468.000000, 568.000000)">
                <rect id="Rectangle-Copy-12" fill="#2C2C2C" opacity="0" x="0" y="0" width="50" height="50" rx="7"></rect>
                <g id="Group-30" transform="translate(15.000000, 17.000000)" fill="#8D8D8D" fill-rule="nonzero">
                    <path d="M6.501,6 C5.674,6 5.001,5.327 5.001,4.5 C5.001,3.673 5.674,3 6.501,3 C7.328,3 8.001,3.673 8.001,4.5 C8.001,5.327 7.328,6 6.501,6 Z M6.501,4 C6.225,4 6.001,4.224 6.001,4.5 C6.001,4.776 6.225,5 6.501,5 C6.777,5 7.001,4.776 7.001,4.5 C7.001,4.224 6.777,4 6.501,4 Z" id="Shape"></path>
                    <path d="M3.501,9 C2.674,9 2.001,8.327 2.001,7.5 C2.001,6.673 2.674,6 3.501,6 C4.328,6 5.001,6.673 5.001,7.5 C5.001,8.327 4.328,9 3.501,9 Z M3.501,7 C3.225,7 3.001,7.224 3.001,7.5 C3.001,7.776 3.225,8 3.501,8 C3.777,8 4.001,7.776 4.001,7.5 C4.001,7.224 3.777,7 3.501,7 Z" id="Shape"></path>
                    <path d="M10.501,5 C9.674,5 9.001,4.327 9.001,3.5 C9.001,2.673 9.674,2 10.501,2 C11.328,2 12.001,2.673 12.001,3.5 C12.001,4.327 11.328,5 10.501,5 Z M10.501,3 C10.225,3 10.001,3.224 10.001,3.5 C10.001,3.776 10.225,4 10.501,4 C10.777,4 11.001,3.776 11.001,3.5 C11.001,3.224 10.777,3 10.501,3 Z" id="Shape"></path>
                    <path d="M10.001,17 C7.346,17 4.846,16.126 2.961,14.539 C2.036,13.76 1.309,12.852 0.8,11.838 C0.269,10.781 -2.48689958e-14,9.658 -2.48689958e-14,8.5 C-2.48689958e-14,7.342 0.269,6.218 0.8,5.162 C1.309,4.148 2.036,3.24 2.961,2.461 C4.845,0.874 7.345,-1.0658141e-14 10.001,-1.0658141e-14 C12.657,-1.0658141e-14 15.156,0.874 17.041,2.461 C17.966,3.24 18.693,4.148 19.202,5.162 C19.733,6.219 20.002,7.342 20.002,8.5 C20.002,10.352 19.177,11.012 18.405,11.012 C17.76,11.012 17.096,10.56 16.583,9.773 C16.259,9.276 15.917,9.002 15.62,9.002 C15.521,9.002 15.423,9.032 15.321,9.093 C14.759,9.429 15.091,10.338 15.339,10.849 C16.141,12.503 16.207,13.947 15.531,15.027 C14.711,16.337 12.85,17.001 10.001,17.001 L10.001,17 Z M10.001,1 C5.038,1 1.001,4.364 1.001,8.5 C1.001,12.636 5.038,16 10.001,16 C11.367,16 12.475,15.841 13.294,15.527 C13.943,15.278 14.411,14.931 14.684,14.495 C15.295,13.519 14.888,12.211 14.439,11.285 C13.479,9.305 14.376,8.492 14.807,8.234 C15.065,8.08 15.338,8.001 15.62,8.001 C16.078,8.001 16.762,8.214 17.421,9.227 C17.798,9.806 18.187,10.012 18.405,10.012 C18.762,10.012 19.002,9.404 19.002,8.5 C19.002,4.364 14.965,1 10.002,1 L10.001,1 Z" id="Shape"></path>
                    <path d="M11.001,14 C9.898,14 9.001,13.103 9.001,12 C9.001,10.897 9.898,10 11.001,10 C12.104,10 13.001,10.897 13.001,12 C13.001,13.103 12.104,14 11.001,14 Z M11.001,11 C10.45,11 10.001,11.449 10.001,12 C10.001,12.551 10.45,13 11.001,13 C11.552,13 12.001,12.551 12.001,12 C12.001,11.449 11.552,11 11.001,11 Z" id="Shape"></path>
                </g>
            </g>
        </g>
    </g>
</svg>