<?xml version="1.0" encoding="UTF-8"?>
<svg width="44px" height="44px" viewBox="0 0 44 44" version="1.1" xmlns="http://www.w3.org/2000/svg" xmlns:xlink="http://www.w3.org/1999/xlink">
    <title>Group 8</title>
    <g id="Icons" stroke="none" stroke-width="1" fill="none" fill-rule="evenodd">
        <g id="Artboard" transform="translate(-1045.000000, -418.000000)">
            <g id="Group-8" transform="translate(1045.000000, 418.000000)">
                <path d="M22.445144,22.445144 L29.554856,22.445144 C29.8004093,22.445144 30,22.2455533 30,22 C30,21.7544467 29.8004093,21.554856 29.554856,21.554856 L22.445144,21.554856 L22.445144,14.445144 C22.445144,14.1995907 22.2455533,14 22,14 C21.7544467,14 21.554856,14.1995907 21.554856,14.445144 L21.554856,21.554856 L14.445144,21.554856 C14.1995907,21.554856 14,21.7544467 14,22 C14,22.1234063 14.0503699,22.2342201 14.1309618,22.3148119 C14.2115536,22.3954037 14.322997,22.445144 14.4457737,22.4457737 L21.5554856,22.4457737 L21.5554856,29.5554856 C21.5554856,29.6788919 21.6058555,29.7897057 21.6864473,29.8702975 C21.7670392,29.9508893 21.8784826,30.0006296 22.0012592,30.0012592 C22.2468125,30.0012592 22.4464033,29.8016685 22.4464033,29.5561152 L22.445144,22.445144 Z" id="Path" fill="#8D8D8D" fill-rule="nonzero"></path>
                <rect id="Rectangle-Copy-6" fill="#2C2C2C" opacity="0" x="0" y="0" width="44" height="44" rx="7"></rect>
            </g>
        </g>
    </g>
</svg>