<?xml version="1.0" encoding="UTF-8"?>
<svg width="50px" height="50px" viewBox="0 0 50 50" version="1.1" xmlns="http://www.w3.org/2000/svg" xmlns:xlink="http://www.w3.org/1999/xlink">
    <title>Group 20</title>
    <g id="Icons" stroke="none" stroke-width="1" fill="none" fill-rule="evenodd">
        <g id="Artboard" transform="translate(-561.000000, -269.000000)">
            <g id="Group-20" transform="translate(561.000000, 269.000000)">
                <rect id="Rectangle-Copy-6" fill="#2C2C2C" opacity="0" x="0" y="0" width="50" height="50" rx="7"></rect>
                <path d="M33.5002574,23 C33.2242574,23 33.0002574,23.224 33.0002574,23.5 L33.0002574,26.152 C31.0302574,24.141 28.3342574,23 25.5002574,23 C23.8212574,23 22.2162574,23.385 20.7302574,24.144 C19.3132574,24.868 18.0582574,25.924 17.1002574,27.199 C16.9342574,27.42 16.9792574,27.733 17.1992574,27.899 C17.2892574,27.967 17.3942574,27.999 17.4992574,27.999 C17.6512574,27.999 17.8012574,27.93 17.8992574,27.799 C19.7132574,25.384 22.4832574,24 25.4992574,24 C28.1322574,24 30.6332574,25.088 32.4272574,27 L29.4992574,27 C29.2232574,27 28.9992574,27.224 28.9992574,27.5 C28.9992574,27.776 29.2232574,28 29.4992574,28 L33.4992574,28 C33.7752574,28 33.9992574,27.776 33.9992574,27.5 L33.9992574,23.5 C33.9992574,23.224 33.7752574,23 33.4992574,23 L33.5002574,23 Z" id="Path" fill="#8D8D8D" fill-rule="nonzero"></path>
            </g>
        </g>
    </g>
</svg>