<?xml version="1.0" encoding="UTF-8"?>
<svg width="50px" height="50px" viewBox="0 0 50 50" version="1.1" xmlns="http://www.w3.org/2000/svg" xmlns:xlink="http://www.w3.org/1999/xlink">
    <title>Group 19</title>
    <g id="Icons" stroke="none" stroke-width="1" fill="none" fill-rule="evenodd">
        <g id="Artboard" transform="translate(-511.000000, -269.000000)">
            <g id="Group-19" transform="translate(511.000000, 269.000000)">
                <rect id="Rectangle-Copy-6" fill="#2C2C2C" opacity="0" x="0" y="0" width="50" height="50" rx="7"></rect>
                <path d="M33.9,27.199 C32.942,25.924 31.687,24.867 30.27,24.144 C28.784,23.385 27.179,23 25.5,23 C22.666,23 19.97,24.141 18,26.152 L18,23.5 C18,23.224 17.776,23 17.5,23 C17.224,23 17,23.224 17,23.5 L17,27.5 C17,27.776 17.224,28 17.5,28 L21.5,28 C21.776,28 22,27.776 22,27.5 C22,27.224 21.776,27 21.5,27 L18.572,27 C20.366,25.088 22.867,24 25.5,24 C28.516,24 31.286,25.385 33.1,27.799 C33.198,27.93 33.348,27.999 33.5,27.999 C33.605,27.999 33.71,27.966 33.8,27.899 C34.021,27.733 34.065,27.42 33.899,27.199 L33.9,27.199 Z" id="Path" fill="#8D8D8D" fill-rule="nonzero"></path>
            </g>
        </g>
    </g>
</svg>